<svg id="canvas" width="491.957" height="198.279" viewBox="402.659 235.416 491.957 198.279" preserveAspectRatio="xMidYMid meet" class="h-full w-full max-w-4xl text-primary transition-opacity duration-300 opacity-100" xmlns="http://www.w3.org/2000/svg"><g id="canvas-strokes"><path d="M 431.93,330.67 C 431.10 330.26, 430.70 330.37, 429.50 330.76 C 428.30 331.15, 427.46 331.29, 425.92 332.63 C 424.38 333.96, 423.55 334.91, 421.81 337.43 C 420.06 339.96, 419.07 341.62, 417.22 345.25 C 415.37 348.88, 414.37 351.50, 412.56 355.60 C 410.75 359.69, 409.48 361.59, 408.15 365.73 C 406.83 369.87, 406.30 372.42, 405.93 376.28 C 405.57 380.15, 405.45 382.16, 406.33 385.05 C 407.21 387.94, 408.41 389.08, 410.33 390.72 C 412.25 392.37, 413.63 392.75, 415.93 393.26 C 418.24 393.76, 419.41 393.66, 421.86 393.24 C 424.32 392.82, 425.73 392.57, 428.21 391.16 C 430.68 389.75, 432.36 388.87, 434.25 386.21 C 436.14 383.55, 436.54 381.90, 437.65 377.84 C 438.77 373.78, 439.03 371.65, 439.82 365.91 C 440.62 360.17, 441.36 356.78, 441.62 349.14 C 441.89 341.49, 441.77 336.47, 441.15 327.69 C 440.52 318.91, 439.83 313.73, 438.49 305.23 C 437.16 296.73, 436.17 292.57, 434.47 285.20 C 432.77 277.84, 431.80 274.68, 429.99 268.39 C 428.17 262.09, 427.10 258.82, 425.40 253.74 C 423.70 248.67, 423.20 246.08, 421.47 243.02 C 419.73 239.95, 418.27 238.49, 416.73 238.42 C 415.18 238.34, 413.77 239.38, 413.76 242.63 C 413.74 245.88, 414.89 248.42, 416.66 254.66 C 418.42 260.91, 419.53 265.53, 422.59 273.84 C 425.65 282.14, 427.66 287.14, 431.96 296.18 C 436.26 305.23, 438.98 310.40, 444.10 319.06 C 449.23 327.73, 452.23 332.16, 457.60 339.50 C 462.97 346.85, 465.71 350.34, 470.96 355.80 C 476.20 361.27, 478.81 363.49, 483.83 366.82 C 488.85 370.14, 491.54 371.24, 496.05 372.41 C 500.56 373.58, 502.38 373.36, 506.37 372.67 C 510.35 371.98, 512.11 370.97, 515.97 368.96 C 519.84 366.95, 522.24 365.68, 525.70 362.62 C 529.16 359.56, 530.62 357.53, 533.26 353.65 C 535.91 349.76, 537.04 347.56, 538.93 343.21 C 540.83 338.85, 541.76 336.35, 542.74 331.87 C 543.71 327.39, 543.69 324.90, 543.81 320.81 C 543.93 316.72, 544.05 314.74, 543.32 311.43 C 542.59 308.13, 541.93 306.58, 540.16 304.28 C 538.39 301.99, 536.78 300.99, 534.47 299.97 C 532.15 298.95, 530.94 298.52, 528.60 299.18 C 526.27 299.85, 524.39 300.72, 522.80 303.29 C 521.22 305.86, 520.63 307.96, 520.68 312.05 C 520.74 316.13, 521.23 318.86, 523.09 323.73 C 524.96 328.59, 526.85 331.81, 530.00 336.37 C 533.14 340.93, 534.74 342.95, 538.82 346.50 C 542.89 350.05, 545.02 351.47, 550.37 354.12 C 555.72 356.77, 559.29 357.99, 565.56 359.74 C 571.83 361.49, 575.52 362.28, 581.73 362.86 C 587.95 363.44, 590.94 363.32, 596.62 362.64 C 602.30 361.96, 605.41 361.19, 610.12 359.46 C 614.84 357.73, 616.98 356.34, 620.19 353.98 C 623.39 351.62, 624.21 349.97, 626.15 347.65 C 628.09 345.33, 628.65 344.17, 629.90 342.37 C 631.16 340.58, 631.32 339.75, 632.44 338.67 C 633.56 337.59, 634.00 337.42, 635.49 336.98 C 636.97 336.53, 637.74 336.44, 639.86 336.46 C 641.98 336.48, 643.27 336.35, 646.09 337.06 C 648.91 337.77, 650.63 338.72, 653.96 340.01 C 657.28 341.29, 659.14 341.91, 662.70 343.48 C 666.26 345.05, 667.89 346.16, 671.74 347.85 C 675.60 349.55, 678.02 350.70, 681.96 351.94 C 685.90 353.18, 687.87 353.82, 691.44 354.06 C 695.02 354.30, 696.90 353.96, 699.84 353.14 C 702.77 352.31, 704.13 351.58, 706.11 349.93 C 708.08 348.29, 708.72 347.16, 709.73 344.91 C 710.74 342.67, 711.08 341.14, 711.15 338.71 C 711.22 336.29, 710.88 334.95, 710.08 332.77 C 709.28 330.60, 708.39 329.33, 707.14 327.83 C 705.89 326.34, 705.09 325.91, 703.84 325.29 C 702.59 324.67, 701.77 324.50, 700.90 324.73 C 700.03 324.95, 699.64 325.60, 699.47 326.42 C 699.31 327.24, 699.72 327.76, 700.07 328.84 C 700.43 329.92, 700.59 330.48, 701.25 331.82 C 701.91 333.15, 702.72 334.09, 703.38 335.50 C 704.04 336.91, 704.39 337.40, 704.54 338.85 C 704.69 340.31, 704.51 341.42, 704.14 342.78 C 703.78 344.15, 703.87 344.80, 702.70 345.70 C 701.52 346.59, 700.46 346.71, 698.26 347.26 C 696.06 347.81, 694.66 348.50, 691.70 348.44 C 688.74 348.38, 687.05 348.02, 683.47 346.97 C 679.89 345.93, 677.50 344.88, 673.79 343.23 C 670.08 341.58, 668.41 340.46, 664.92 338.73 C 661.42 337.00, 659.70 336.24, 656.31 334.60 C 652.91 332.96, 651.27 331.56, 647.94 330.53 C 644.61 329.49, 642.58 329.26, 639.64 329.44 C 636.70 329.62, 635.44 330.36, 633.23 331.42 C 631.03 332.47, 630.19 333.18, 628.61 334.71 C 627.02 336.25, 626.67 337.19, 625.30 339.10 C 623.93 341.01, 623.35 341.99, 621.75 344.26 C 620.16 346.52, 619.93 348.11, 617.33 350.43 C 614.72 352.75, 612.95 354.11, 608.72 355.87 C 604.50 357.64, 601.52 358.50, 596.18 359.24 C 590.84 359.98, 587.98 360.11, 582.04 359.57 C 576.09 359.03, 572.49 358.23, 566.46 356.53 C 560.42 354.84, 556.92 353.66, 551.87 351.11 C 546.83 348.57, 544.92 347.21, 541.23 343.81 C 537.55 340.40, 536.17 338.43, 533.45 334.09 C 530.73 329.76, 529.02 326.53, 527.64 322.13 C 526.26 317.74, 526.42 315.29, 526.55 312.11 C 526.68 308.93, 527.62 307.92, 528.31 306.24 C 529.00 304.56, 529.31 303.98, 530.01 303.70 C 530.70 303.42, 530.71 304.01, 531.80 304.85 C 532.90 305.69, 534.27 306.32, 535.49 307.89 C 536.71 309.47, 537.22 310.15, 537.89 312.73 C 538.56 315.31, 538.77 317.14, 538.85 320.79 C 538.94 324.43, 539.08 326.82, 538.29 330.96 C 537.51 335.10, 536.68 337.45, 534.95 341.48 C 533.21 345.52, 532.08 347.60, 529.62 351.14 C 527.16 354.68, 525.82 356.41, 522.67 359.18 C 519.51 361.96, 517.28 363.13, 513.86 365.03 C 510.44 366.93, 508.97 367.89, 505.56 368.69 C 502.16 369.49, 500.89 369.88, 496.85 369.02 C 492.82 368.16, 490.22 367.37, 485.38 364.39 C 480.55 361.41, 477.89 359.35, 472.68 354.12 C 467.47 348.88, 464.70 345.44, 459.35 338.22 C 454.00 330.99, 450.98 326.59, 445.92 317.99 C 440.86 309.39, 438.16 304.24, 434.03 295.22 C 429.90 286.20, 428.03 281.19, 425.28 272.89 C 422.52 264.60, 421.65 259.93, 420.26 253.75 C 418.88 247.57, 419.18 244.84, 418.35 242.01 C 417.52 239.19, 416.32 239.03, 416.11 239.63 C 415.91 240.23, 416.13 241.94, 417.33 245.00 C 418.54 248.07, 420.15 250.12, 422.15 254.96 C 424.14 259.80, 425.33 263.04, 427.30 269.20 C 429.28 275.37, 430.28 278.50, 432.03 285.78 C 433.78 293.06, 434.75 297.20, 436.05 305.61 C 437.35 314.03, 438.02 319.18, 438.53 327.86 C 439.04 336.53, 439.09 341.51, 438.60 348.99 C 438.11 356.47, 437.23 359.82, 436.10 365.27 C 434.96 370.72, 434.33 372.88, 432.92 376.24 C 431.52 379.61, 430.71 380.35, 429.09 382.10 C 427.46 383.85, 426.56 384.06, 424.81 384.98 C 423.06 385.89, 421.96 386.14, 420.33 386.68 C 418.69 387.22, 417.98 387.63, 416.63 387.68 C 415.28 387.72, 414.54 387.75, 413.59 386.93 C 412.63 386.10, 412.31 385.60, 411.85 383.55 C 411.39 381.51, 411.07 379.98, 411.29 376.72 C 411.50 373.46, 411.73 371.03, 412.93 367.25 C 414.12 363.47, 415.36 361.60, 417.27 357.82 C 419.18 354.04, 420.31 351.49, 422.46 348.35 C 424.62 345.21, 426.27 344.28, 428.05 342.14 C 429.82 340.01, 430.34 339.07, 431.35 337.66 C 432.35 336.26, 432.62 336.08, 433.07 335.11 C 433.53 334.14, 433.87 333.69, 433.64 332.80 C 433.41 331.91, 432.76 331.07, 431.93 330.67" style="stroke: black; fill: black;"/><path d="M 706.87,336.06 C 705.93 337.34, 705.22 339.21, 705.05 342.70 C 704.88 346.18, 705.42 348.78, 706.02 353.50 C 706.61 358.22, 706.95 361.09, 708.02 366.29 C 709.09 371.48, 709.78 373.97, 711.38 379.48 C 712.99 384.99, 713.95 388.14, 716.04 393.84 C 718.13 399.53, 719.58 402.60, 721.84 407.96 C 724.09 413.32, 725.30 416.44, 727.30 420.66 C 729.30 424.87, 730.01 427.15, 731.84 429.04 C 733.68 430.93, 735.17 431.08, 736.49 430.10 C 737.81 429.12, 739.01 427.77, 738.46 424.14 C 737.90 420.50, 736.04 417.62, 733.70 411.93 C 731.36 406.24, 729.84 402.43, 726.75 395.70 C 723.66 388.97, 721.56 385.14, 718.25 378.27 C 714.93 371.41, 713.11 367.74, 710.17 361.36 C 707.22 354.99, 705.72 351.71, 703.53 346.40 C 701.34 341.09, 700.10 338.65, 699.22 334.82 C 698.33 330.98, 697.98 329.93, 699.08 327.22 C 700.19 324.52, 701.13 323.19, 704.74 321.28 C 708.35 319.38, 711.20 318.49, 717.13 317.70 C 723.06 316.90, 726.97 316.86, 734.39 317.31 C 741.80 317.76, 746.62 318.48, 754.20 319.96 C 761.79 321.43, 765.96 322.74, 772.31 324.70 C 778.66 326.67, 781.82 327.94, 785.96 329.79 C 790.11 331.63, 791.47 332.83, 793.04 333.95 C 794.60 335.06, 794.78 334.91, 793.79 335.36 C 792.81 335.81, 791.32 335.35, 788.12 336.19 C 784.92 337.04, 782.37 338.54, 777.79 339.60 C 773.21 340.66, 770.16 341.07, 765.21 341.49 C 760.27 341.92, 757.44 342.00, 753.06 341.74 C 748.69 341.47, 746.39 341.05, 743.34 340.18 C 740.29 339.30, 738.92 338.63, 737.81 337.38 C 736.69 336.12, 736.66 335.84, 737.76 333.92 C 738.86 332.00, 739.68 330.36, 743.29 327.77 C 746.90 325.18, 749.71 323.21, 755.81 320.98 C 761.90 318.75, 765.93 317.70, 773.77 316.62 C 781.61 315.55, 786.88 315.83, 795.00 315.61 C 803.12 315.38, 807.88 315.56, 814.37 315.49 C 820.87 315.43, 824.86 315.83, 827.48 315.28 C 830.09 314.73, 830.07 313.25, 827.45 312.75 C 824.83 312.26, 820.86 312.81, 814.36 312.82 C 807.85 312.84, 803.13 312.65, 794.93 312.83 C 786.74 313.02, 781.45 312.77, 773.40 313.75 C 765.35 314.73, 761.19 315.62, 754.69 317.72 C 748.18 319.82, 745.17 321.42, 740.88 324.23 C 736.58 327.03, 734.57 328.57, 733.22 331.74 C 731.88 334.91, 732.41 337.44, 734.15 340.07 C 735.88 342.69, 738.16 343.65, 741.89 344.87 C 745.63 346.08, 748.10 345.93, 752.82 346.16 C 757.55 346.39, 760.33 346.32, 765.54 346.02 C 770.74 345.72, 773.97 345.57, 778.85 344.66 C 783.72 343.75, 786.47 342.92, 789.94 341.47 C 793.41 340.03, 795.03 339.47, 796.19 337.42 C 797.35 335.37, 797.51 333.42, 795.75 331.22 C 794.00 329.03, 791.92 328.32, 787.41 326.44 C 782.89 324.55, 779.70 323.66, 773.17 321.81 C 766.64 319.95, 762.46 318.66, 754.75 317.15 C 747.04 315.64, 742.21 314.86, 734.60 314.27 C 726.99 313.69, 723.04 313.52, 716.70 314.24 C 710.36 314.95, 707.16 315.54, 702.90 317.84 C 698.64 320.13, 696.85 322.16, 695.40 325.72 C 693.95 329.28, 694.60 331.27, 695.64 335.65 C 696.68 340.04, 698.21 342.28, 700.59 347.66 C 702.98 353.05, 704.56 356.21, 707.57 362.58 C 710.59 368.94, 712.43 372.61, 715.66 379.50 C 718.89 386.39, 720.90 390.24, 723.72 397.02 C 726.54 403.81, 727.80 407.76, 729.75 413.42 C 731.70 419.09, 732.37 422.20, 733.48 425.36 C 734.59 428.51, 734.85 428.98, 735.28 429.21 C 735.70 429.45, 736.42 428.63, 735.61 426.53 C 734.79 424.43, 733.27 422.73, 731.19 418.73 C 729.10 414.72, 727.56 411.71, 725.18 406.50 C 722.80 401.28, 721.36 398.24, 719.30 392.64 C 717.24 387.04, 716.31 383.92, 714.88 378.50 C 713.44 373.08, 712.92 370.64, 712.12 365.54 C 711.31 360.44, 711.21 357.59, 710.87 353.01 C 710.52 348.43, 710.61 345.99, 710.38 342.65 C 710.15 339.31, 710.43 337.63, 709.72 336.31 C 709.02 335.00, 707.80 334.78, 706.87 336.06" style="stroke: black; fill: black;"/><path d="M 888.21,330.75 C 888.81 331.53, 889.18 331.40, 889.65 331.29 C 890.12 331.18, 890.17 331.00, 890.55 330.21 C 890.93 329.42, 891.85 328.36, 891.56 327.33 C 891.27 326.31, 890.09 325.06, 889.11 325.08 C 888.13 325.10, 886.84 326.28, 886.66 327.42 C 886.48 328.55, 887.61 329.98, 888.21 330.75" style="stroke: black; fill: black;"/></g></svg>