<svg xmlns="http://www.w3.org/2000/svg" xmlns:xlink="http://www.w3.org/1999/xlink" viewBox="0.2512798309326172 22.656728744506836 360.18670654296875 128.8228530883789" width="559.1969094115043" height="200"><path d="M 150.102,73.781 C 149.192,81.364 148.893,81.301 147.684,88.820" stroke-width="4.464" stroke="black" fill="none" stroke-linecap="round"></path><path d="M 147.684,88.820 C 146.296,94.114 146.600,94.178 144.918,99.410" stroke-width="3.680" stroke="black" fill="none" stroke-linecap="round"></path><path d="M 144.918,99.410 C 143.745,104.038 143.716,104.030 142.523,108.652" stroke-width="3.568" stroke="black" fill="none" stroke-linecap="round"></path><path d="M 149.289,78.039 C 160.509,77.101 160.518,77.236 171.746,76.434" stroke-width="1.139" stroke="black" fill="none" stroke-linecap="round"></path><path d="M 171.746,76.434 C 193.634,74.727 193.640,75.134 215.551,74.105" stroke-width="1.410" stroke="black" fill="none" stroke-linecap="round"></path><path d="M 215.551,74.105 C 234.773,72.998 234.661,73.563 253.801,74.105" stroke-width="1.620" stroke="black" fill="none" stroke-linecap="round"></path><path d="M 253.801,74.105 C 263.899,74.236 263.234,74.654 272.473,77.418" stroke-width="2.188" stroke="black" fill="none" stroke-linecap="round"></path><path d="M 272.473,77.418 C 279.423,80.024 276.454,78.896 278.910,83.426" stroke-width="3.067" stroke="black" fill="none" stroke-linecap="round"></path><path d="M 278.910,83.426 C 276.134,92.454 277.953,89.774 269.531,96.918" stroke-width="3.518" stroke="black" fill="none" stroke-linecap="round"></path><path d="M 269.531,96.918 C 253.536,106.492 254.779,106.891 236.199,112.301" stroke-width="2.090" stroke="black" fill="none" stroke-linecap="round"></path><path d="M 236.199,112.301 C 209.366,120.828 209.716,121.174 181.891,126.281" stroke-width="1.474" stroke="black" fill="none" stroke-linecap="round"></path><path d="M 181.891,126.281 C 138.878,134.834 139.013,134.791 95.492,140.227" stroke-width="1.125" stroke="black" fill="none" stroke-linecap="round"></path><path d="M 95.492,140.227 C 62.862,143.702 63.032,144.261 30.199,145.137" stroke-width="1.125" stroke="black" fill="none" stroke-linecap="round"></path><path d="M 30.199,145.137 C 14.442,147.987 18.608,145.646 6.984,144.113" stroke-width="1.765" stroke="black" fill="none" stroke-linecap="round"></path><path d="M 6.984,144.113 C 5.106,136.834 3.680,142.397 8.676,133.957" stroke-width="3.001" stroke="black" fill="none" stroke-linecap="round"></path><path d="M 8.676,133.957 C 18.965,128.368 16.659,127.522 30.090,125.488" stroke-width="2.545" stroke="black" fill="none" stroke-linecap="round"></path><path d="M 30.090,125.488 C 73.602,113.710 73.516,114.249 117.777,105.719" stroke-width="1.125" stroke="black" fill="none" stroke-linecap="round"></path><path d="M 117.777,105.719 C 152.838,100.749 152.565,99.425 188.016,96.918" stroke-width="1.125" stroke="black" fill="none" stroke-linecap="round"></path><path d="M 188.016,96.918 C 207.256,95.453 207.194,94.829 226.488,93.879" stroke-width="1.448" stroke="black" fill="none" stroke-linecap="round"></path><path d="M 226.488,93.879 C 269.088,90.850 269.040,90.396 311.582,86.805" stroke-width="1.125" stroke="black" fill="none" stroke-linecap="round"></path><path d="M 311.582,86.805 C 328.884,84.879 328.900,85.156 346.113,82.492" stroke-width="1.466" stroke="black" fill="none" stroke-linecap="round"></path><path d="M 346.113,82.492 C 354.038,81.354 350.811,81.841 355.438,80.730" stroke-width="2.509" stroke="black" fill="none" stroke-linecap="round"></path><path d="M 355.438,80.730 C 352.825,80.117 356.181,80.399 350.398,80.582" stroke-width="3.898" stroke="black" fill="none" stroke-linecap="round"></path><path d="M 350.398,80.582 C 347.500,81.539 347.470,81.143 344.727,82.781" stroke-width="4.785" stroke="black" fill="none" stroke-linecap="round"></path><path d="M 344.727,82.781 C 341.029,84.929 340.857,84.514 337.113,86.531" stroke-width="4.563" stroke="black" fill="none" stroke-linecap="round"></path><path d="M 337.113,86.531 C 333.977,87.738 334.031,87.793 330.730,88.508" stroke-width="4.182" stroke="black" fill="none" stroke-linecap="round"></path><path d="M 330.730,88.508 C 324.645,90.093 324.645,89.951 318.449,90.957" stroke-width="3.406" stroke="black" fill="none" stroke-linecap="round"></path><path d="M 318.449,90.957 C 307.163,92.619 307.188,92.527 295.816,93.375" stroke-width="2.638" stroke="black" fill="none" stroke-linecap="round"></path><path d="M 295.816,93.375 C 284.051,93.836 284.079,94.157 272.281,94.031" stroke-width="2.436" stroke="black" fill="none" stroke-linecap="round"></path><path d="M 272.281,94.031 C 264.247,94.434 264.277,94.164 256.270,94.031" stroke-width="2.741" stroke="black" fill="none" stroke-linecap="round"></path><path d="M 256.270,94.031 C 248.762,94.628 251.862,93.809 247.512,92.781" stroke-width="3.304" stroke="black" fill="none" stroke-linecap="round"></path><path d="M 247.512,92.781 C 249.060,89.109 246.545,91.354 251.836,87.484" stroke-width="4.387" stroke="black" fill="none" stroke-linecap="round"></path><path d="M 251.836,87.484 C 255.384,86.238 254.777,85.763 258.945,86.090" stroke-width="4.542" stroke="black" fill="none" stroke-linecap="round"></path><path d="M 258.945,86.090 C 261.956,87.835 261.504,85.984 264.074,86.977" stroke-width="5.101" stroke="black" fill="none" stroke-linecap="round"></path><path d="M 264.074,86.977 C 267.180,82.033 266.667,85.925 268.367,82.270" stroke-width="4.350" stroke="black" fill="none" stroke-linecap="round"></path><path d="M 268.367,82.270 C 267.246,87.444 269.411,82.478 268.535,87.867" stroke-width="5.015" stroke="black" fill="none" stroke-linecap="round"></path><path d="M 268.535,87.867 C 271.537,86.292 270.059,88.368 273.992,84.117" stroke-width="4.779" stroke="black" fill="none" stroke-linecap="round"></path><path d="M 273.992,84.117 C 277.697,78.780 275.980,82.356 277.422,79.996" stroke-width="4.835" stroke="black" fill="none" stroke-linecap="round"></path><path d="M 277.422,79.996 C 274.493,86.364 276.705,83.169 272.008,92.895" stroke-width="4.698" stroke="black" fill="none" stroke-linecap="round"></path><path d="M 272.008,92.895 C 270.537,96.959 270.475,96.922 269.387,101.113" stroke-width="3.977" stroke="black" fill="none" stroke-linecap="round"></path><path d="M 269.387,101.113 C 268.197,106.905 267.814,106.795 266.563,112.566" stroke-width="3.429" stroke="black" fill="none" stroke-linecap="round"></path><path d="M 266.563,112.566 C 263.901,120.552 265.250,117.110 263.492,121.523" stroke-width="3.556" stroke="black" fill="none" stroke-linecap="round"></path><path d="M 263.492,121.523 C 264.414,118.651 263.232,122.142 265.223,115.746" stroke-width="4.468" stroke="black" fill="none" stroke-linecap="round"></path><path d="M 265.223,115.746 C 266.879,109.296 267.008,109.333 268.680,102.887" stroke-width="3.459" stroke="black" fill="none" stroke-linecap="round"></path><path d="M 268.680,102.887 C 270.629,94.298 271.050,94.450 273.566,86.055" stroke-width="2.946" stroke="black" fill="none" stroke-linecap="round"></path><path d="M 273.566,86.055 C 277.100,75.650 277.228,75.780 281.879,65.852" stroke-width="2.524" stroke="black" fill="none" stroke-linecap="round"></path><path d="M 281.879,65.852 C 286.742,55.806 286.727,55.913 292.820,46.582" stroke-width="2.466" stroke="black" fill="none" stroke-linecap="round"></path><path d="M 292.820,46.582 C 297.434,39.647 297.328,39.742 303.051,33.723" stroke-width="2.729" stroke="black" fill="none" stroke-linecap="round"></path><path d="M 303.051,33.723 C 306.627,28.941 306.362,30.230 310.676,27.746" stroke-width="3.229" stroke="black" fill="none" stroke-linecap="round"></path><path d="M 310.676,27.746 C 315.655,27.708 313.022,27.054 315.840,29.949" stroke-width="4.203" stroke="black" fill="none" stroke-linecap="round"></path><path d="M 315.840,29.949 C 314.926,37.125 316.301,35.542 311.969,43.414" stroke-width="3.281" stroke="black" fill="none" stroke-linecap="round"></path><path d="M 311.969,43.414 C 306.913,53.643 307.199,53.558 300.387,62.816" stroke-width="2.623" stroke="black" fill="none" stroke-linecap="round"></path><path d="M 300.387,62.816 C 293.780,70.803 294.402,71.229 286.945,78.586" stroke-width="2.561" stroke="black" fill="none" stroke-linecap="round"></path><path d="M 286.945,78.586 C 279.905,85.149 283.579,82.420 279.984,86.051" stroke-width="3.115" stroke="black" fill="none" stroke-linecap="round"></path><path d="M 279.984,86.051 C 283.717,84.127 280.049,86.790 287.234,81.867" stroke-width="4.147" stroke="black" fill="none" stroke-linecap="round"></path><path d="M 287.234,81.867 C 290.962,79.269 291.053,79.414 294.656,76.625" stroke-width="3.739" stroke="black" fill="none" stroke-linecap="round"></path><path d="M 294.656,76.625 C 301.243,71.275 297.513,74.580 300.336,72.488" stroke-width="3.904" stroke="black" fill="none" stroke-linecap="round"></path><path d="M 300.336,72.488 C 294.186,78.623 298.096,75.485 288.363,85.047" stroke-width="4.400" stroke="black" fill="none" stroke-linecap="round"></path><path d="M 288.363,85.047 C 285.565,88.570 285.345,88.377 282.652,91.996" stroke-width="3.869" stroke="black" fill="none" stroke-linecap="round"></path><path d="M 282.652,91.996 C 275.950,99.001 279.598,95.589 276.430,99.086" stroke-width="3.689" stroke="black" fill="none" stroke-linecap="round"></path><path d="M 276.430,99.086 C 280.235,95.232 276.972,99.182 284.695,92.359" stroke-width="4.428" stroke="black" fill="none" stroke-linecap="round"></path><path d="M 284.695,92.359 C 291.406,88.465 291.182,88.182 298.324,84.984" stroke-width="3.272" stroke="black" fill="none" stroke-linecap="round"></path><path d="M 298.324,84.984 C 304.795,81.860 304.736,81.758 311.355,78.945" stroke-width="3.113" stroke="black" fill="none" stroke-linecap="round"></path><path d="M 311.355,78.945 C 316.501,76.285 314.150,77.704 317.035,76.672" stroke-width="3.726" stroke="black" fill="none" stroke-linecap="round"></path><path d="M 317.035,76.672 C 313.268,81.097 317.493,77.003 313.340,80.383" stroke-width="4.658" stroke="black" fill="none" stroke-linecap="round"></path><path d="M 313.340,80.383 C 315.630,76.777 313.456,79.225 317.410,72.930" stroke-width="5.151" stroke="black" fill="none" stroke-linecap="round"></path><path d="M 317.410,72.930 C 319.974,67.478 319.921,67.506 321.922,61.840" stroke-width="4.389" stroke="black" fill="none" stroke-linecap="round"></path><path d="M 321.922,61.840 C 322.831,56.213 322.739,59.474 322.941,56.922" stroke-width="4.735" stroke="black" fill="none" stroke-linecap="round"></path><path d="M 322.941,56.922 C 323.040,61.369 323.136,58.168 322.531,65.750" stroke-width="4.522" stroke="black" fill="none" stroke-linecap="round"></path><path d="M 322.531,65.750 C 321.806,71.088 321.913,71.078 320.688,76.340" stroke-width="3.711" stroke="black" fill="none" stroke-linecap="round"></path><path d="M 320.688,76.340 C 318.860,83.976 319.829,80.369 318.578,84.313" stroke-width="3.764" stroke="black" fill="none" stroke-linecap="round"></path><path d="M 318.578,84.313 C 317.101,78.162 318.345,84.591 319.656,77.570" stroke-width="4.701" stroke="black" fill="none" stroke-linecap="round"></path><path d="M 319.656,77.570 C 327.959,79.332 325.964,76.111 336.305,80.211" stroke-width="4.850" stroke="black" fill="none" stroke-linecap="round"></path><circle r="1.5" cx="335.5546875" cy="76.9375" fill="black"></circle></svg>